# xmcd CD database file
#
# Track frame offsets:
#	150
#	18365
#	42020
#	57692
#	83842
#	104377
#	129230
#	149327
#	164902
#	181135
#	211060
#
# Disc length: 3132 seconds
#
# Revision: 0
# Processed by: cddbd v1.5.1PL0 Copyright (c) Steve Scherf et al.
# Submitted via: CDex 1.51
#
DISCID=950c3a0b
DTITLE=Jutta Deichmann - Ways Of Life
DYEAR=2000
DGENRE=Jazz
TTITLE0=Tapping Feet
TTITLE1=You´ve Got A Friend
TTITLE2=Miss U
TTITLE3=Lush Life
TTITLE4=For Sentimental Reasons
TTITLE5=People Say
TTITLE6=Save Your Love For Me
TTITLE7=Night And Day
TTITLE8=New York Afternoon
TTITLE9=Leaving On A Jet Plane
TTITLE10=People Say (Fusion)
EXTD=YEAR: 2000
EXTT0=
EXTT1=
EXTT2=
EXTT3=
EXTT4=
EXTT5=
EXTT6=
EXTT7=
EXTT8=
EXTT9=
EXTT10=
PLAYORDER=
